<?xml version="1.0" encoding="utf-8"?>
<!-- Generator: Adobe Illustrator 21.1.0, SVG Export Plug-In . SVG Version: 6.00 Build 0)  -->
<svg version="1.1" id="Isolation_Mode" xmlns="http://www.w3.org/2000/svg" xmlns:xlink="http://www.w3.org/1999/xlink" x="0px"
	 y="0px" viewBox="0 0 34 34" style="enable-background:new 0 0 34 34;" xml:space="preserve">
<style type="text/css">
	.st0{fill:#2B90CE;}
</style>
<g>
	<path class="st0" d="M8.1,16.9c0.3,0.9,1.1,3.3,1.6,4.3c0.9,1.8,3.5,4.8,7.3,4.8c3.9,0,6.4-3,7.3-4.8c0.5-1,1.3-3.4,1.6-4.3
		c0.7-0.2,1.3-0.9,1.3-1.6V13c0-0.7-0.5-1.4-1.1-1.6V8.5c0-2.2-1.2-6.4-5.5-6.8c0-0.3-0.1-0.5-0.2-0.6C19.8,0.2,18.2,0,17,0
		C6.9,0,6.8,9.5,6.8,9.6c0,0.3,0.3,0.6,0.6,0.6h0c0.3,0,0.6-0.3,0.6-0.6c0-0.3,0.1-8.5,9.1-8.5c1.6,0,2.2,0.3,2.4,0.6
		c0,0,0.1,0.1,0,0.3c-0.1,0.2-0.1,0.4,0,0.6c0.1,0.2,0.3,0.3,0.5,0.3c5,0,5.1,5.4,5.1,5.7v3.4c0,0.3,0.3,0.6,0.6,0.6
		c0.3,0,0.6,0.3,0.6,0.6v2.3c0,0.3-0.3,0.6-0.6,0.6c-0.2,0-0.5,0.2-0.5,0.4c0,0-1.1,3.4-1.7,4.5c-0.1,0.2-2.2,4.2-6.3,4.2
		s-6.2-4-6.3-4.2C10.2,19.6,9,16.3,9,16.3C9,16,8.7,15.9,8.5,15.9c-0.3,0-0.6-0.3-0.6-0.6V13c0-0.2,0.1-0.3,0.2-0.4
		c0.2,0.5,0.7,1,1.5,1c0.2,0,0.4-0.1,0.5-0.3c0.5-1,1-2,1.2-3.1c2.9-0.1,7.2-1.2,9.3-2.7c0.5,2,2.2,3.6,2.3,3.7
		c0.2,0.2,0.6,0.2,0.8,0c0.2-0.2,0.2-0.6,0-0.8c0,0-2.1-2.1-2.1-4.1c0-0.3-0.2-0.5-0.4-0.5c-0.2-0.1-0.5,0-0.6,0.3
		c-1,1.6-6.3,3.1-9.7,3.1c-0.3,0-0.6,0.3-0.6,0.6c0,0.9-0.4,1.8-0.9,2.8c-0.2-0.1-0.2-0.3-0.3-0.5c0-0.3-0.3-0.6-0.6-0.6
		c-0.9,0-1.7,0.8-1.7,1.7v2.3C6.8,16.1,7.3,16.8,8.1,16.9L8.1,16.9z M8.1,16.9"/>
	<path class="st0" d="M34,33.3L33.4,31c-0.3-0.9-2-3.7-11.9-3.8v-0.6c0-0.3-0.3-0.6-0.6-0.6c-0.3,0-0.6,0.3-0.6,0.6v1.1c0,0,0,0,0,0
		c0,0,0,0,0,0c0,0.3-0.1,3.4-3.4,3.4c-3.3,0-3.4-3.1-3.4-3.4v-1.1c0-0.3-0.3-0.6-0.6-0.6c-0.3,0-0.6,0.3-0.6,0.6v0.6
		c-7.3,0.1-11,1.2-11.9,3.8L0,33.3c-0.1,0.3,0.1,0.6,0.4,0.7c0.3,0.1,0.6-0.1,0.7-0.4l0.6-2.2c0.7-2,4.2-3,10.8-3
		c0.2,1.6,1.3,4,4.5,4c3.2,0,4.3-2.3,4.5-3.9c7.8,0.1,10.5,1.9,10.8,2.9l0.6,2.3c0.1,0.3,0.3,0.4,0.5,0.4c0,0,0.1,0,0.1,0
		C33.9,33.9,34.1,33.6,34,33.3L34,33.3z M34,33.3"/>
</g>
</svg>
