<svg xmlns="http://www.w3.org/2000/svg" width="44" height="8" viewBox="0 0 44 8">
  <defs>
    <style>
      .cls-1 {
        fill: #0091d4;
        fill-rule: evenodd;
      }
    </style>
  </defs>
  <path id="IMAX" class="cls-1" d="M1156.55,1026.09s-2.13,4.07-2.48,4.74c-0.35-.67-2.49-4.74-2.49-4.74h-4.16V1034h2.32v-5.73h0.47c0.12,0.24,2.9,5.73,2.9,5.73h1.92s2.77-5.49,2.89-5.73h0.48V1034h2.31v-7.91h-4.16ZM1143,1034h2.61v-7.91H1143V1034h0Zm18.17,0h2.76l0.71-1.35h5.2l0.71,1.35h2.75l-4.16-7.91h-3.81l-4.16,7.91h0Zm6.2-6.12c0.11,0.21,1.31,2.49,1.58,3h-3.42c0.27-.51,1.47-2.79,1.58-3h0.26Zm16.95-1.8h-2.66s-1.93,2.22-2.23,2.58c-0.3-.36-2.2-2.58-2.2-2.58h-3.18s3,3.44,3.23,3.71c-0.24.27-3.85,4.21-3.85,4.21h3.4s2.31-2.55,2.62-2.88c0.3,0.34,2.58,2.88,2.58,2.88h3.4s-3.6-3.94-3.85-4.21c0.24-.27,3.24-3.71,3.24-3.71h-0.5Zm1.75,0.07a0.751,0.751,0,1,0,.78.75,0.769,0.769,0,0,0-.78-0.75h0Zm0,1.65a0.9,0.9,0,1,1,.93-0.9,0.916,0.916,0,0,1-.93.9h0Zm-0.2-.74v0.32h-0.19v-0.98h0.52a0.254,0.254,0,0,1,.3.3c0,0.14-.01.25-0.18,0.27v0.01c0.14,0.01.17,0.08,0.17,0.22v0.18h-0.19v-0.18a0.124,0.124,0,0,0-.13-0.14h-0.3Zm0.26-.16c0.14,0,.18-0.03.18-0.17s-0.03-.17-0.17-0.17h-0.27v0.34h0.26Z" transform="translate(-1143 -1026)"/>
</svg>
