<?xml version="1.0" encoding="utf-8"?>
<!-- Generator: Adobe Illustrator 21.1.0, SVG Export Plug-In . SVG Version: 6.00 Build 0)  -->
<svg version="1.1" id="Layer_1" xmlns="http://www.w3.org/2000/svg" xmlns:xlink="http://www.w3.org/1999/xlink" x="0px" y="0px"
	 viewBox="0 0 36 34" style="enable-background:new 0 0 36 34;" xml:space="preserve">
<style type="text/css">
	.st0{fill:#2B90CE;}
</style>
<g>
	<path class="st0" d="M8.8,13.7c-0.3-0.2-0.6-0.1-0.8,0.2C4.9,18.5,5.4,28,5.4,28.4C5.4,28.8,5.7,29,6,29c0,0,0,0,0,0
		c0.3,0,0.6-0.3,0.6-0.6c0-0.1-0.6-9.5,2.3-13.8C9.1,14.2,9,13.9,8.8,13.7L8.8,13.7z M8.8,13.7"/>
	<g>
		<path class="st0" d="M30,29L30,29c0.4,0,0.6-0.3,0.6-0.6c0-0.2-0.2-4.3-1.1-8.5C28.3,14,26.2,11,23.4,11h-0.6
			c0.2-3.2,2.5-6,5.5-6.9c0.3-0.1,0.5-0.4,0.4-0.7c-0.1-0.3-0.4-0.5-0.7-0.4c-3.8,1.1-6.4,4.7-6.4,8.6c0,0.3,0.3,0.6,0.6,0.6h1.2
			c4.4,0,5.8,11.7,6,16.2C29.4,28.7,29.7,29,30,29L30,29z M30,29"/>
		<path class="st0" d="M16.2,18.2c2.3,0,4.2-1.9,4.2-4.2v-2.4c0-5.4,4.3-9.9,9.6-10.2v4.2c0,0.1,0,0.3,0.1,0.4l4.6,6.3
			c-0.2,0.4-0.7,1.1-1.6,1.1l-4.1-1.7c-0.3-0.1-0.7,0-0.8,0.3c-0.1,0.3,0,0.7,0.3,0.8l4.2,1.8c0.1,0,0.2,0,0.2,0
			c2.2,0,2.9-2.1,3-2.2c0.1-0.2,0-0.4-0.1-0.5l-4.7-6.4V0.8c0-0.3-0.3-0.6-0.6-0.6c-6.3,0-11.4,5.1-11.4,11.4V14c0,1.7-1.3,3-3,3
			c-1.7,0-3-1.3-3-3v-1.8h4.2c0.3,0,0.6-0.3,0.6-0.6c0-0.3-0.3-0.6-0.6-0.6h-4.8c-0.3,0-0.6,0.3-0.6,0.6V14
			C12,16.3,13.9,18.2,16.2,18.2L16.2,18.2z M16.2,18.2"/>
		<path class="st0" d="M8.4,30.2C8.4,30.2,8.4,30.2,8.4,30.2C8.7,30.2,9,30,9,29.6c0-0.3,0.7-7.8,9-7.8c8.3,0,9,7.5,9,7.8
			c0,0.3,0.3,0.6,0.6,0.6c0.3,0,0.6-0.3,0.6-0.6c-0.2-3.1-2.6-9-10.2-9c-7.6,0-10,5.9-10.2,9C7.8,29.9,8.1,30.2,8.4,30.2L8.4,30.2z
			 M8.4,30.2"/>
		<path class="st0" d="M35.8,26.7c-0.3-0.2-0.6-0.2-0.8,0.1c0,0.1-4.7,5.8-16.9,5.8c-11.9,0-16.9-5.7-16.9-5.8
			c-0.2-0.3-0.6-0.3-0.8-0.1C0,27,0,27.3,0.2,27.6c0.2,0.3,5.3,6.2,17.9,6.2c12.8,0,17.7-6,17.9-6.2C36.1,27.3,36.1,26.9,35.8,26.7
			L35.8,26.7z M35.8,26.7"/>
	</g>
	<path class="st0" d="M1.8,18.2c0.1,0,1.4,0,3.3-1.3c0.3-0.2,0.4-0.6,0.2-0.8c-0.2-0.3-0.6-0.4-0.8-0.2c-0.7,0.5-1.3,0.7-1.8,0.9
		c0.7-1.6,2.6-4.6,7.5-4.6c0.3,0,0.6-0.3,0.6-0.6c0-0.3-0.3-0.6-0.6-0.6c-7.6,0-9,6.4-9,6.5c0,0.2,0,0.4,0.1,0.5
		C1.5,18.1,1.6,18.2,1.8,18.2L1.8,18.2z M1.8,18.2"/>
	<path class="st0" d="M27.9,5.6C27.4,5.6,27,6,27,6.5c0,0.5,0.4,0.9,0.9,0.9c0.5,0,0.9-0.4,0.9-0.9C28.8,6,28.4,5.6,27.9,5.6
		L27.9,5.6z M27.9,5.6"/>
</g>
</svg>
