<svg xmlns="http://www.w3.org/2000/svg" width="34" height="10" viewBox="0 0 34 10">
  <defs>
    <style>
      .cls-1 {
        fill: #f22200;
        fill-rule: evenodd;
      }
    </style>
  </defs>
  <path class="cls-1" d="M928.977,1033.86H924l1.895-9.69h2.732L927.1,1032h2.222Zm5.5,0-0.023-1.14h-1.952l-0.482,1.14h-2.606l4-7.96h2.893l0.919,7.96h-2.744Zm-0.08-5.02c0-.29.011-0.59,0.034-0.83h-0.023a7.354,7.354,0,0,1-.356,1.03l-0.918,2.17h1.3Zm8.92-.96a2.335,2.335,0,0,0-1.16-.28,0.716,0.716,0,0,0-.861.6c0,0.76,2.147.82,2.147,2.69a3.2,3.2,0,0,1-3.49,3.11,5.118,5.118,0,0,1-2.411-.5l0.976-1.83a2.687,2.687,0,0,0,1.32.35c0.563,0,.8-0.26.8-0.52,0-.76-2.044-0.91-2.044-2.72a3.128,3.128,0,0,1,3.433-3.02,4.22,4.22,0,0,1,2.159.49Zm6.13-.19h-1.733l-0.253,1.29h1.458l-0.333,1.75h-1.458l-0.264,1.34H948.6l-0.345,1.79h-4.4l1.539-7.96h4.4Zm8.548-1.2c0-1.59-1.3-2.49-3.593-2.49a8.477,8.477,0,0,0-3.2.58l-1.8,9.28h2.7l0.769-3.99a1.91,1.91,0,0,1,.7,1.22l0.546,2.77h2.935l-0.838-2.84a4.049,4.049,0,0,0-.7-1.36v-0.03C957.287,1028.94,958,1027.83,958,1026.49Zm-2.992,1.36a1.635,1.635,0,0,1-1.468.95,1.785,1.785,0,0,1-.447-0.05l0.6-3.12a2.04,2.04,0,0,1,.531-0.07,0.922,0.922,0,0,1,1.077,1.03A3.03,3.03,0,0,1,955.008,1027.85Z" transform="translate(-924 -1024)"/>
</svg>
