<?xml version="1.0" encoding="utf-8"?>
<!-- Generator: Adobe Illustrator 21.1.0, SVG Export Plug-In . SVG Version: 6.00 Build 0)  -->
<svg version="1.1" id="Isolation_Mode" xmlns="http://www.w3.org/2000/svg" xmlns:xlink="http://www.w3.org/1999/xlink" x="0px"
	 y="0px" viewBox="0 0 34 34" style="enable-background:new 0 0 34 34;" xml:space="preserve">
<style type="text/css">
	.st0{fill:#2B90CE;}
</style>
<g>
	<g>
		<path class="st0" d="M33.8,9.2l-5.7-5.7c-0.1-0.1-0.3-0.2-0.4-0.2H21c-0.3,0-0.6,0.3-0.6,0.6c0,0.3,0.3,0.6,0.6,0.6h6.6l5.2,5.2
			L18.3,30.6l4.9-20.4h7.5c0.3,0,0.6-0.3,0.6-0.6c0-0.3-0.3-0.6-0.6-0.6H24l2.4-2.4c0.2-0.2,0.2-0.6,0-0.8c-0.2-0.2-0.6-0.2-0.8,0
			l-3,3l-0.2-0.2c-0.2-0.2-0.6-0.2-0.8,0c-0.1,0.1-0.2,0.3-0.2,0.4h-9.1c0-0.1-0.1-0.3-0.2-0.4c-0.2-0.2-0.6-0.2-0.8,0l-0.2,0.2
			l-3-3c-0.2-0.2-0.6-0.2-0.8,0c-0.2,0.2-0.2,0.6,0,0.8L10,9.1H3.4c-0.3,0-0.6,0.3-0.6,0.6c0,0.3,0.3,0.6,0.6,0.6h7.5l4.9,20.4
			L1.3,9.7l5.2-5.2H13c0.3,0,0.6-0.3,0.6-0.6c0-0.3-0.3-0.6-0.6-0.6H6.2c-0.2,0-0.3,0.1-0.4,0.2L0.2,9.2C0,9.4-0.1,9.7,0.1,10
			l16.4,23.8c0,0,0.1,0.1,0.1,0.1c0,0,0,0,0,0c0,0,0.1,0,0.1,0.1c0,0,0,0,0,0c0.1,0,0.1,0,0.2,0s0.1,0,0.2,0c0,0,0,0,0,0
			c0,0,0.1,0,0.1-0.1c0,0,0,0,0,0c0,0,0.1-0.1,0.1-0.1L33.9,10C34.1,9.7,34,9.4,33.8,9.2L33.8,9.2z M17,31l-4.9-20.8h9.9L17,31z
			 M17,31"/>
		<path class="st0" d="M15.2,4l-2.1,3.1C13,7.3,13,7.6,13.2,7.8C13.4,8,13.7,8,13.9,7.8L17,5.8l3.1,2.1c0.1,0.1,0.2,0.1,0.3,0.1
			c0.1,0,0.3-0.1,0.4-0.2C21,7.6,21,7.3,20.9,7.1L18.8,4l2.1-3.1C21,0.7,21,0.4,20.8,0.2c-0.2-0.2-0.5-0.2-0.7-0.1L17,2.2l-3.1-2.1
			c-0.2-0.1-0.5-0.1-0.7,0.1C13,0.4,13,0.7,13.1,0.9L15.2,4z M16.3,3.7l-0.7-1l1,0.7c0.2,0.1,0.4,0.1,0.6,0l1-0.7l-0.7,1
			c-0.1,0.2-0.1,0.4,0,0.6l0.7,1l-1-0.7c-0.1-0.1-0.2-0.1-0.3-0.1c-0.1,0-0.2,0-0.3,0.1l-1,0.7l0.7-1C16.5,4.1,16.5,3.8,16.3,3.7
			L16.3,3.7z M16.3,3.7"/>
	</g>
</g>
</svg>
