<?xml version="1.0" encoding="utf-8"?>
<!-- Generator: Adobe Illustrator 21.1.0, SVG Export Plug-In . SVG Version: 6.00 Build 0)  -->
<svg version="1.1" id="Layer_1" xmlns="http://www.w3.org/2000/svg" xmlns:xlink="http://www.w3.org/1999/xlink" x="0px" y="0px"
	 viewBox="0 0 50 50" style="enable-background:new 0 0 50 50;" xml:space="preserve">
<style type="text/css">
	.st0{fill:#6ABB26;}
</style>
<g>
	<g>
		<path class="st0" d="M25,50c-4.5,0-8.8-0.7-12.8-2l-0.1,0C7.4,46.4,3.6,42.6,2,37.9l0-0.1c-1.3-4-2-8.4-2-12.8
			c0-4.5,0.7-8.8,2-12.8l0-0.1C3.6,7.4,7.4,3.6,12.1,2l0.1,0c4-1.3,8.4-2,12.8-2s8.8,0.7,12.8,2l0.1,0c4.7,1.6,8.5,5.3,10,10l0,0.1
			c1.3,4,2,8.4,2,12.8s-0.7,8.8-2,12.8l0,0.1c-1.6,4.7-5.3,8.5-10,10l-0.1,0C33.8,49.3,29.5,50,25,50z M25,2.2
			c-4.2,0-8.3,0.6-12.1,1.9l-0.1,0c-4.1,1.4-7.3,4.6-8.6,8.6l0,0.1C2.9,16.7,2.2,20.8,2.2,25c0,4.2,0.6,8.3,1.9,12.1l0,0.1
			c1.4,4.1,4.6,7.3,8.6,8.6l0.1,0c3.8,1.3,7.9,1.9,12.1,1.9c4.2,0,8.3-0.6,12.1-1.9l0.1,0c4.1-1.4,7.3-4.6,8.7-8.6l0-0.1
			c1.3-3.8,1.9-7.9,1.9-12.1c0-4.2-0.6-8.3-1.9-12.1l0-0.1c-1.4-4.1-4.6-7.3-8.6-8.6l0,0C33.3,2.9,29.2,2.2,25,2.2z"/>
	</g>
	<g>
		<path class="st0" d="M21,36c-0.6,0-1.1-0.2-1.6-0.7l-7.6-7.6c-1.3-1.3-1.3-3.4,0-4.8c1.3-1.3,3.4-1.3,4.8,0l4.4,4.4L33.4,15l0,0
			c1.3-1.3,3.4-1.3,4.8,0c1.3,1.3,1.3,3.4,0,4.8L22.6,35.3C22.1,35.8,21.6,36,21,36z M14.2,23.7c-0.4,0-0.8,0.2-1.2,0.5
			c-0.6,0.6-0.6,1.7,0,2.3l7.6,7.6c0.2,0.2,0.5,0.2,0.7,0l15.6-15.6c0.6-0.6,0.6-1.7,0-2.3c-0.6-0.6-1.7-0.6-2.3,0L22.1,28.8
			c-0.3,0.3-0.7,0.5-1.1,0.5c-0.4,0-0.8-0.2-1.1-0.5l-4.5-4.5C15.1,23.9,14.6,23.7,14.2,23.7z"/>
	</g>
</g>
</svg>
