<svg xmlns="http://www.w3.org/2000/svg" width="152" height="32" viewBox="0 0 152 32">
    <g fill="none" fill-rule="evenodd">
        <path fill="#424242" d="M78.543 9.287h-4.356L66.919 21.86c.871 0 1.976-.7 2.486-1.569l.362-.615c.276-.339.743-.615 1.126-.615h8.096c.362.043.765.276 1.02.594l.362.636c.51.87 1.615 1.57 2.486 1.57h2.975L78.543 9.286zm-.127 9.011h-8.224l4.505-7.803 4.059 7.019c.233.424.085.784-.34.784zM125.065 9.287h-4.356L113.44 21.86c.871 0 1.976-.7 2.486-1.569l.362-.615c.276-.339.743-.615 1.126-.615h8.096c.362.043.765.276 1.02.594l.362.636c.51.87 1.615 1.57 2.486 1.57h2.975l-7.289-12.574zm-.127 9.011h-8.224l4.505-7.803 4.059 7.019c.255.424.085.784-.34.784zM105.204 16.708c-.213-.763-.935-1.357-1.828-1.506v-.063c.574-.149.85-.721.85-.721a5.92 5.92 0 0 0-.02-4.432s-.298-.7-1.127-.7H89.69V20.292c0 .87.701 1.57 1.573 1.57h11.709c1.04 0 1.976-.658 2.21-1.527a6.38 6.38 0 0 0 .02-3.626zm-3.676 2.799c0 .87-.702 1.569-1.573 1.569h-7.098v-3.541c0-.848.702-1.57 1.594-1.57h5.525c.872 0 1.573.7 1.573 1.57v1.972h-.021zm-.638-5.895c0 .87-.701 1.57-1.572 1.57H94.43c-.871 0-1.573-.7-1.573-1.57v-3.54h7.247c.425 0 .786.36.786.784v2.756zM111.026 21.86c0 .852-.685 1.537-1.536 1.537a1.533 1.533 0 0 1-1.537-1.537c0-.851.685-1.536 1.537-1.536.83 0 1.536.685 1.536 1.536M141.016 21.055a.552.552 0 0 1-.489-.552c0-.17.085-.339.213-.445l10.03-8.078c.531-.467.786-.806.892-1.06a1.119 1.119 0 0 0-.999-1.633H136.49c0 .424.362.784.787.784l10.115.021c.106.022.17.107.17.191 0 .064-.043.128-.085.17l-10.774 8.757a1.533 1.533 0 0 0-.489 1.124c0 .827.659 1.505 1.488 1.526h13.451c.425 0 .787-.36.787-.784l-10.923-.021zM12.601 13.605c0 .868-.701 1.566-1.572 1.566H4.717a1.566 1.566 0 0 1-1.572-1.566V9.287H0V21.86h3.145v-4.318c0-.847.68-1.566 1.572-1.566h6.312c.871 0 1.572.72 1.572 1.566v4.318h3.145V9.287h-3.145v4.318zM60.948 16.008l-9.796-3.562a1.243 1.243 0 0 1-.786-1.145c0-.657.488-1.187 1.126-1.23H62.18c.425 0 .786-.36.786-.784H50.238a3.026 3.026 0 0 0-3.017 3.01c0 1.21.722 2.27 1.763 2.736l9.117 3.308c.552.19.935.72.935 1.335a1.4 1.4 0 0 1-1.403 1.4h-10.2a1.59 1.59 0 0 0 1.36.784h-.021H59.95a2.99 2.99 0 0 0 2.996-2.99 2.919 2.919 0 0 0-1.998-2.862"/>
        <path fill="#039BE5" d="M20.052 15.563c-1.246 6.951 3.093 12.584 9.688 12.584 5.006 0 9.84-3.231 12.438-7.823 0 0-3.695.468-4.726 1.212-.129.085-.343.362-.343.362-2.235 2.848-5.435 4.719-8.68 4.719-5.284 0-8.678-4.932-7.583-11.033 1.096-6.1 6.252-11.032 11.515-11.032 3.115 0 5.542 1.743 6.853 4.4.193.383-.129.489-.129.489l-9.86 5.527s-.43.212-.387-.277c0 0 .687-5.165.902-6.887.022-.106-.021-.149-.021-.17-.065-.085-.172-.212-.237-.298-.043-.042-.086 0-.086.043a2472.65 2472.65 0 0 0-1.503 8.482s.021.106.107.085c1.332-.574 12.868-5.527 14.909-6.42.451-.191.43-.553.365-.702C41.77 5.317 38.484 3 34.251 3c-6.616-.021-12.953 5.612-14.2 12.563"/>
    </g>
</svg>
